<svg xmlns="http://www.w3.org/2000/svg" width="251" height="261"><path fill="#fdc20f" d="M112 6c2.64.065 5.242.192 7.875.375l2.223.133c3.158.207 5.887.487 8.902 1.492.957 6.373 1.111 12.537 1.038 18.974l-.025 3.245c-.027 3.518-.063 7.036-.099 10.554l-.064 7.35q-.069 7.684-.147 15.368-.098 9.866-.178 19.733-.065 7.578-.139 15.158a6118 6118 0 0 0-.065 7.28q-.043 5.07-.1 10.14l-.022 3.057-.034 2.778-.024 2.421C131 126 131 126 130 128h2l-1 16h3l-.125-3.5c-.016-4.445.907-8.237 2.125-12.5h2l-.117-2.57c.128-3.739.902-6.732 1.992-10.305 1.667-5.534 1.667-5.534 3.125-11.125 1.95-8.002 4.304-15.902 6.863-23.728 2.717-8.359 4.635-16.766 6.34-25.385C157 51 157 51 158 48h2l-.187-3.375c0-4.288.99-7.843 2.335-11.89 1.254-4.024 2.065-8.14 2.91-12.266C166 18 166 18 168.099 16.656L170 16v2h6v2h4v2h3v2h2c1.354 2.709 1.065 5.01 1 8h-2l-.375 3.625c-.456 3.673-1.432 6.866-2.625 10.375-.54 2.477-1.017 4.963-1.492 7.453-.708 3.552-1.6 7.041-2.508 10.547h-2l.145 2.445c-.18 4.4-1.231 8.22-2.458 12.43l-.646 2.316c-1.069 3.758-2.24 7.428-3.643 11.075-1.099 2.935-1.914 5.545-2.46 8.609l-.477 2.547L165 106a647 647 0 0 1-.937 5.125l-.403 2.258c-.73 2.897-1.801 5.606-2.873 8.39-1.398 3.955-2.318 8.026-3.287 12.102-1.65 6.776-3.394 13.474-5.5 20.125h2l.75-2.5c1.437-4.024 3.274-7.72 5.25-11.5h2l.75-2.625c1.32-3.563 3.135-6.236 5.25-9.375.77-2.226.77-2.226 1-4h2l2-6h2l.758-2.57c1.338-3.696 3.115-6.944 5.117-10.305 2.9-4.961 5.638-9.943 8.125-15.125h2l1-4h2l.754-2.484c1.45-4.09 3.248-7.889 5.184-11.766l1.052-2.18 1.037-2.086.93-1.883C204 64 204 64 207 62l1-2.562L209 57l3-1v-2h3v2h2q1.007 1.935 2 3.875l1.125 2.18C221 64 221 64 221 66h2c1.356 7.271 1.356 7.271-.25 10.563L221 79c-1.08 2.305-2.03 4.646-3 7h-2l-.875 2.625L212 98h-2v2h-2l-.937 2.875C206 106 206 106 205 108h-2l-.742 2.477c-1.483 4.155-3.376 7.976-5.383 11.898l-1.129 2.23q-1.369 2.7-2.746 5.395h-2l-.84 1.723c-1.558 3.058-3.304 6-5.039 8.96-1.183 2.445-1.701 4.644-2.121 7.317h-3l-1 6h-2l-2 6h-2l-1 6h-2v2h-2v2h4l.25-1.75c.968-2.904 2.437-4.287 4.75-6.25h2v-2h2l1-4h2v-2h4l1-4h2v-2h2v-2h2v-2c1.875-2.125 1.875-2.125 4-4h2v-2h2v-2h2v-2h3l1-4h2v-2h3l1-4h2v-2h2v-2h2v-2h3l.688-1.625c1.777-3.217 3.742-5.745 6.312-8.375 2.668-.172 2.668-.172 5 0 4.52 19.835 4.52 19.835 1.563 25.75L236 136h-3l-.937 1.875L230 142h-2v2h-4v4h-2v2h-3v2h-2v2h-2l-1 4h-2v2h-4v4h-3v2h-2v2h-2v2h-2v2h-2l-1 4h-4v4h-3v2h-2v2h-2v2h-2v2h-2l-1 4h4v-2h2v-2h4v-2l7-2v-2h4v-2c3.228-2.152 4.284-2.2 8-2v-2h4v-2h2v-2h4v-2h5v-2l6-2v-2c4.875.875 4.875.875 6 2-.012 2.541-.094 5.03-.25 7.563l-.133 2.2c-.384 5.225-1.337 9.478-3.617 14.237h-3v2h-5v2h-3v2h-5v2h-3v2h-5v2h-3v2h-3v2h-4v2a418 418 0 0 1-3.812 2l-2.145 1.125C190 212 190 212 187 212v2h-4v2h-4v4h10v-2h3v2h19v-2h6v2h3c1.012 2.648 1.048 3.85.18 6.594l-1.305 2.906-1.258 2.844L216 236q-1.306 3.111-2.601 6.229l-1.362 3.275L211 248l-2.503.031q-11.697.147-23.393.308-6.013.084-12.026.158-5.806.072-11.613.156-2.211.03-4.422.056-3.105.037-6.211.086c-1.177.015-2.354.03-3.567.047-3.162.153-6.157.57-9.265 1.158v2h-4v2c-9.774 1.422-17.924 1.126-27.5-1.437l-2.742-.698c-6.603-1.71-6.603-1.71-7.758-2.865a78 78 0 0 0-4.78-.13l-3.083-.009-3.356.006-3.419-.003q-3.585 0-7.172.006c-3.674.005-7.348 0-11.022-.007q-3.474 0-6.95.004l-3.355-.006-3.084.01-2.73.002c-2.042-.1-2.042-.1-3.049 1.127-2.5.125-2.5.125-5 0l-1-1a70 70 0 0 0-4.062-.562L30 248v-2h-2l-.55-1.977C26.02 239.051 24.403 234.6 22 230c-.69-1.992-1.36-3.991-2-6l-1-2 1-2h4v-2h5v2h31l1-4-7-2v-2h-4v-2h-2v-2h-5v-2h-4v-2l-1.75-.437L31 202v-2h-3v-2h-3v-2h-6v-2h-2v-2h-4v-2h-3v-2H8c-4.762-17.969-4.762-17.969-3.062-22.5L6 164h5v2h2v2h3v2h6v2h4l2 3c2.06.724 2.06.724 4 1v2h4v2l1.75.414c5.298 1.38 9.976 3.103 14.25 6.586l3 1v2h3v2h2c-.102-2.947-.102-2.947-1-6-2.463-1.453-2.463-1.453-5-2v-2h-2v-2h-2c-2.125-1.875-2.125-1.875-4-4v-2l-4-2v-2h-2v-2h-2v-2l-2.437-.75C33 164 33 164 32.187 161.875L32 160h-3v-2h-2l-1-4h-2v-2h-2v-2h-3v-2h-2l-1-4h-3v-2h-2v-2H9v-2H7v-2H5c-3.668-5.595-3.07-9.927-2.25-16.25l.305-2.758c.768-6.638.768-6.638 1.945-8.992h6l1 4h2l1 4h2v2h3l.313 1.938L21 122l3 1c1.688 1.438 1.688 1.438 3 3v2h3v2h2l1 4h3l.188 1.875L37 138l2.5 1 2.5 1c.813 2.125.813 2.125 1 4h3v2h2c5 5.476 5 5.476 5 8h4v2h2v4h3v2h2a91 91 0 0 1 4 4v-6h-2c-3-5.75-3-5.75-3-8h-2c-1.765-3.088-2-4.233-2-8h-2l-1-4h-2l-1.426-2.922-1.886-3.828-.936-1.922c-1.67-3.374-3.443-6.364-5.752-9.328a88 88 0 0 1-2.187-4.125l-1.043-2.07C40 114 40 114 40 112h-2a652 652 0 0 1-2-3.875l-1.125-2.18C34 104 34 104 34 102h-2v-4h-3a1505 1505 0 0 1-3-5.875l-1.687-3.305C23 86 23 86 23 84h-2l-2-8h-2v-8h2l1-4h2l.313-2.75c.7-3.31 1.267-4.92 3.687-7.25h4q2.227 3.87 4.438 7.75c.42.73.841 1.46 1.275 2.21l1.22 2.15 1.127 1.967C39.02 70.038 39.55 71.87 40 74h2l1 6h2l1 4h2l1 4h2c1.765 3.088 2 4.233 2 8h2c4 6.625 4 6.625 4 10h2q1.007 1.935 2 3.875l1.125 2.18C65 114 65 114 65 116h2l.875 2.938c.767 3.169.767 3.169 3.125 4.062.852 2.066.852 2.066 1.625 4.563.26.826.52 1.652.79 2.503L74 132h2q2.193 3.84 4.375 7.688l1.25 2.185c1.702 3.005 3.268 5.84 4.477 9.084L87 153l3 1-1.277-3.246c-2.068-5.515-3.664-11.157-5.285-16.816l-.92-3.182q-.88-3.044-1.752-6.09-.922-3.202-1.864-6.4c-1.048-3.795-1.914-7.614-2.777-11.454-1.13-4.935-2.35-9.728-4.062-14.5C67.735 79.983 65.51 66.803 63 54h-2l-.367-1.977c-.74-3.858-1.47-7.554-2.758-11.273-.97-3.047-1.026-5.572-.875-8.75h-2c-.227-3.328-.322-5.418 1.313-8.375C58 22 58 22 61 22v-2h3v-2l9-1c2.665 3.952 3.808 7.557 4.875 12.188q.507 2.14 1.02 4.277l.537 2.245c.96 3.87 2.047 7.703 3.13 11.54a521 521 0 0 1 4.622 17.55c1.25 4.898 2.629 9.76 4.015 14.62a201 201 0 0 1 3.321 13.537c.481 2.048 1.098 3.995 1.793 5.98 4.196 12.211 7.225 24.82 9.987 37.421l.587 2.583.506 2.303c.452 1.97.452 1.97 2.607 2.756l-.021-2.048q-.255-24.662-.474-49.325-.104-11.926-.229-23.853-.109-10.395-.195-20.791-.044-5.505-.107-11.008c-.048-4.097-.08-8.194-.11-12.29l-.05-3.686c-.005-1.118-.01-2.235-.017-3.386l-.027-2.936c.273-3.171.905-6.352 3.23-8.677"/><path fill="#fbc310" d="M112 6c2.64.065 5.242.192 7.875.375l2.223.133c3.158.207 5.887.487 8.902 1.492.957 6.373 1.111 12.537 1.038 18.974l-.025 3.245c-.027 3.518-.063 7.036-.099 10.554l-.064 7.35q-.069 7.684-.147 15.368-.098 9.866-.178 19.733-.065 7.578-.139 15.158a6118 6118 0 0 0-.065 7.28q-.043 5.07-.1 10.14l-.022 3.057-.034 2.778-.024 2.421C131 126 131 126 130 128h2l-1 16h3l-.125-3.5c-.016-4.445.907-8.237 2.125-12.5h2l-.117-2.57c.128-3.739.902-6.732 1.992-10.305 1.667-5.534 1.667-5.534 3.125-11.125 1.95-8.002 4.304-15.902 6.863-23.728 2.717-8.359 4.635-16.766 6.34-25.385C157 51 157 51 158 48h2l-.187-3.375c0-4.288.99-7.843 2.335-11.89 1.254-4.024 2.065-8.14 2.91-12.266C166 18 166 18 168.099 16.656L170 16v2h6v2h4v2h3v2h2c1.354 2.709 1.065 5.01 1 8h-2l-.375 3.625c-.456 3.673-1.432 6.866-2.625 10.375-.54 2.477-1.017 4.963-1.492 7.453-.708 3.552-1.6 7.041-2.508 10.547h-2l.145 2.445c-.18 4.4-1.231 8.22-2.458 12.43l-.646 2.316c-1.069 3.758-2.24 7.428-3.643 11.075-1.099 2.935-1.914 5.545-2.46 8.609l-.477 2.547L165 106a647 647 0 0 1-.937 5.125l-.403 2.258c-.73 2.897-1.801 5.606-2.873 8.39-1.398 3.955-2.318 8.026-3.287 12.102-1.65 6.776-3.394 13.474-5.5 20.125h2l.75-2.5c1.437-4.024 3.274-7.72 5.25-11.5h2l.75-2.625c1.32-3.563 3.135-6.236 5.25-9.375.77-2.226.77-2.226 1-4h2l2-6h2l.758-2.57c1.338-3.696 3.115-6.944 5.117-10.305 2.9-4.961 5.638-9.943 8.125-15.125h2l1-4h2l.754-2.484c1.45-4.09 3.248-7.889 5.184-11.766l1.052-2.18 1.037-2.086.93-1.883C204 64 204 64 207 62l1-2.562L209 57l3-1v-2h3v2h2q1.007 1.935 2 3.875l1.125 2.18C221 64 221 64 221 66h2c1.347 7.224 1.347 7.224-.312 10.938C221 79 221 79 219 80l1.063-2.625c1.024-3.687.817-5.696-.063-9.375l-.562-2.375c-.145-.536-.29-1.072-.438-1.625h-3l-1-4c-1.985.267-1.985.267-4 1l-1 3h-3l-2 6h-2l-.805 2.602c-1.205 3.427-2.667 6.54-4.32 9.773l-1.633 3.21L195 88h-2l-.937 2.875C191 94 191 94 190 96h-2l-.687 2.375c-1.72 4.748-3.994 9.146-6.313 13.625h-2l-.937 2.875C177 118 177 118 176 120h-2l-.75 2.5c-1.437 4.024-3.274 7.72-5.25 11.5h-2l-.875 2.75c-.89 2.572-1.84 4.863-3.125 7.25h-2v4h-2q-.722 2.812-1.437 5.625l-.81 3.164c-.718 3.06-1.273 6.106-1.753 9.211h-2v2h-2v2c-3 2-3 2-6 2v-11l-8-1-1-3-4 7h-3V10h-15v150h-3c-2.411-4.18-2.777-8.41-3.437-13.125-.41-2.806-.41-2.806-1.586-4.86-1.332-2.747-1.404-5.231-1.602-8.265l-.227-3.266L103 128c3.266 3.266 3.326 7.7 4.219 12.129L108 143l2 1-.021-2.048q-.255-24.662-.474-49.325-.104-11.926-.229-23.853-.109-10.395-.195-20.791-.044-5.505-.107-11.008c-.048-4.097-.08-8.194-.11-12.29-.016-1.217-.032-2.433-.05-3.686-.005-1.118-.01-2.235-.017-3.386l-.027-2.936c.273-3.171.905-6.352 3.23-8.677"/><path fill="#f9c313" d="M30 54q2.227 3.87 4.438 7.75c.42.73.841 1.46 1.275 2.21l1.22 2.15 1.127 1.967C39.02 70.038 39.55 71.87 40 74h2l1 6h2l1 4h2l1 4h2c1.765 3.088 2 4.233 2 8h2c4 6.625 4 6.625 4 10h2q1.007 1.935 2 3.875l1.125 2.18C65 114 65 114 65 116h2l.875 2.938c.767 3.169.767 3.169 3.125 4.062.852 2.066.852 2.066 1.625 4.563.26.826.52 1.652.79 2.503L74 132h2q2.193 3.84 4.375 7.688l1.25 2.185c1.702 3.005 3.268 5.84 4.477 9.084L87 153l3 1-1.27-3.242c-2.077-5.547-3.748-11.203-5.418-16.883l-.97-3.207-.916-3.113-.831-2.798c-.645-2.99-.697-5.706-.595-8.757l1 2h4l.516 3.742c1.255 8.862 2.654 17.646 4.609 26.383l.517 2.312c.874 3.885.874 3.885 2.358 7.563.04 2 .043 4 0 6h-2l-1-4h-2v-4h-2l-.953-1.723-1.297-2.34-1.371-2.476a347 347 0 0 0-3.692-6.399C77 140 77 140 77 138h-2l-4-8-1 2h-4l-1 5-4-1v12h2q1.007 1.934 2 3.875l1.125 2.18C67 156 67 156 67 158h3v2h3v2h2v8h2l1 6h2v4l-1.687-.875c-2.398-1.166-4.829-2.159-7.313-3.125v-2h-3v-2l-6 2v12h3v2h2c1.765 3.088 2 4.233 2 8l3 1c1.688 1.438 1.688 1.438 3 3v2c-5.52-.812-10.28-2.749-14-7l-1.687-1.687L58 192h2c-.102-2.947-.102-2.947-1-6-2.463-1.453-2.463-1.453-5-2v-2h-2v-2h-2c-2.125-1.875-2.125-1.875-4-4v-2l-4-2v-2h-2v-2h-2v-2l-2.437-.75C33 164 33 164 32.187 161.875L32 160h-3v-2h-2l-1-4h-2v-2h-2v-2h-3v-2h-2l-1-4h-3v-2h-2v-2H9v-2H7v-2H5c-3.668-5.595-3.07-9.927-2.25-16.25l.305-2.758c.768-6.638.768-6.638 1.945-8.992h6l1 4h2l1 4h2v2h3l.313 1.938L21 122l3 1c1.688 1.438 1.688 1.438 3 3v2h3v2h2l1 4h3l.188 1.875L37 138l2.5 1 2.5 1c.813 2.125.813 2.125 1 4h3v2h2c5 5.476 5 5.476 5 8h4v2h2v4h3v2h2a91 91 0 0 1 4 4v-6h-2c-3-5.75-3-5.75-3-8h-2c-1.765-3.088-2-4.233-2-8h-2l-1-4h-2l-1.426-2.922-1.886-3.828-.936-1.922c-1.67-3.374-3.443-6.364-5.752-9.328a88 88 0 0 1-2.187-4.125l-1.043-2.07C40 114 40 114 40 112h-2a652 652 0 0 1-2-3.875l-1.125-2.18C34 104 34 104 34 102h-2v-4h-3a1505 1505 0 0 1-3-5.875l-1.687-3.305C23 86 23 86 23 84h-2l-2-8h-2v-8h2l1-4h2l.313-2.75C23.443 55.908 24.357 54 30 54"/><path fill="#fbc30f" d="M170 20h6v2l2.938.875C182 24 182 24 183 26c-.13 5.57-.948 10.801-3 16h-2v6h-2v8h-3l-.297 2.5c-1.216 9.392-3.258 18.363-5.703 27.5h-2l-.113 2.64c-.45 8.151-1.703 15.516-3.887 23.36-.76 3.134-1.508 6.27-2.254 9.406-.69 2.397-1.548 4.414-2.746 6.594h-2l-.437 2.875C153 134 153 134 152 136h-2v-8c-4.314.48-6.166 1.746-9 5 .115-1.418.243-2.834.375-4.25l.21-2.39c.433-2.462 1.27-4.157 2.415-6.36q.526-3.496 1-7l1.46-4.766c1.049-4.342 1.506-8.796 2.075-13.222C149 92 149 92 150 90h2l2-14h2l.332-3.656.48-4.844.213-2.398c.49-4.787 1.456-8.855 3.273-13.307.933-2.387 1.435-4.778 1.89-7.295l.48-2.594L163 40h2v-8h2l1-10h2z"/><path fill="#f8da5f" d="M6 164h5v2h2v2h3v2c-3.235-.719-5.84-1.736-9-3l2 17h2v2h4v2h5v2h2v2h3v2h7l1 4h5l1 4h3v2h12l1.688 3.438c1.734 3.117 1.734 3.117 5.062 4.5L63 212l1 5 6 2v2H23l2 11h2q.973 2.374 1.938 4.75l1.09 2.672C31 242 31 242 32 246h71v2h4v2h5v2c2.419.138 4.83.235 7.25.313l2.008.126c4.687.111 7.805-.842 12.004-2.925 7.7-3.288 15.02-3.246 23.222-3.221q2.33-.02 4.657-.046c4.044-.04 8.088-.05 12.132-.054 4.144-.01 8.287-.047 12.43-.082A3884 3884 0 0 1 210 246l.414-2.78c.686-3.77 2.017-6.853 3.586-10.345 1.645-3.678 3.021-6.959 4-10.875h-50l1-6h4v-2h6v-2h4v-6h9v-2h6v-2l5-1 1-3h4v-2h3v-2l-4-1c2.356-2.356 8.296-1.397 11.484-1.523 3.651-.495 5.482-1.493 8.516-3.477h3l.938-3.875c.538-2.226 1.036-4.072 2.062-6.125.228-1.87.41-3.747.563-5.625l.253-3.04L234 167l-2.187 1.5c-2.961 1.58-4.526 1.782-7.813 1.5v-2l6-2v-2c4.875.875 4.875.875 6 2-.012 2.541-.094 5.03-.25 7.563l-.133 2.2c-.384 5.225-1.337 9.478-3.617 14.237h-3v2h-5v2h-3v2h-5v2h-3v2h-5v2h-3v2h-3v2h-4v2a418 418 0 0 1-3.812 2l-2.145 1.125C190 212 190 212 187 212v2h-4v2h-4v4h10v-2h3v2h19v-2h6v2h3c1.012 2.648 1.048 3.85.18 6.594l-1.305 2.906-1.258 2.844L216 236q-1.306 3.111-2.601 6.229l-1.362 3.275L211 248l-2.503.031q-11.697.147-23.393.308-6.013.084-12.026.158-5.806.072-11.613.156-2.211.03-4.422.056-3.105.037-6.211.086c-1.177.015-2.354.03-3.567.047-3.162.153-6.157.57-9.265 1.158v2h-4v2c-9.774 1.422-17.924 1.126-27.5-1.437l-2.742-.698c-6.603-1.71-6.603-1.71-7.758-2.865a78 78 0 0 0-4.78-.13l-3.083-.009-3.356.006-3.419-.003q-3.585 0-7.172.006c-3.674.005-7.348 0-11.022-.007q-3.474 0-6.95.004l-3.355-.006-3.084.01-2.73.002c-2.042-.1-2.042-.1-3.049 1.127-2.5.125-2.5.125-5 0l-1-1a70 70 0 0 0-4.062-.562L30 248v-2h-2l-.55-1.977C26.02 239.051 24.403 234.6 22 230c-.69-1.992-1.36-3.991-2-6l-1-2 1-2h4v-2h5v2h31l1-4-7-2v-2h-4v-2h-2v-2h-5v-2h-4v-2l-1.75-.437L31 202v-2h-3v-2h-3v-2h-6v-2h-2v-2h-4v-2h-3v-2H8c-4.762-17.969-4.762-17.969-3.062-22.5z"/><path fill="#f1cd5f" d="M112 6c2.64.065 5.242.192 7.875.375l2.223.133c3.158.207 5.887.487 8.902 1.492.957 6.373 1.111 12.537 1.038 18.974l-.025 3.245c-.027 3.518-.063 7.036-.099 10.554l-.064 7.35q-.069 7.684-.147 15.368-.098 9.866-.178 19.733-.065 7.578-.139 15.158a6118 6118 0 0 0-.065 7.28q-.043 5.07-.1 10.14l-.022 3.057-.034 2.778-.024 2.421C131 126 131 126 130 128h2l-1 16h3l-3 16h-3V10h-15v150h-3c-2.411-4.18-2.777-8.41-3.437-13.125-.41-2.806-.41-2.806-1.586-4.86-1.332-2.747-1.404-5.231-1.602-8.265l-.227-3.266L103 128c3.266 3.266 3.326 7.7 4.219 12.129L108 143l2 1-.021-2.048q-.255-24.662-.474-49.325-.104-11.926-.229-23.853-.109-10.395-.195-20.791-.044-5.505-.107-11.008c-.048-4.097-.08-8.194-.11-12.29-.016-1.217-.032-2.433-.05-3.686-.005-1.118-.01-2.235-.017-3.386l-.027-2.936c.273-3.171.905-6.352 3.23-8.677"/><path fill="#fbc211" d="M204 160h4v4h-3v2h-2v2h-2v2h-2v2h-2l-1 4h-4v4h-3v2h-2v2h-2v2h-2v2h-2l-1 4h4v-2h2v-2h4v-2l7-2v-2h4v-2c3.228-2.152 4.284-2.2 8-2v-2h4v-2h2v-2h4v-2l2.012-.148 2.675-.227c.87-.07 1.74-.14 2.637-.21 2.8-.434 5.093-1.27 7.676-2.415.52 7.608.266 14.442-4 21-5.742 5.453-14.585 4.792-22 5l3 1v2h-3v2h-4v-3l-4-1v2h-2v2h-6v-4h3v-3l5-2-3-1v2h-5v2l-3.312.875c-3.728.944-3.728.944-6.688 3.125-3.187.125-3.187.125-6 0v4l-9 2c1-4 1-4 2-6h2v-2l2.375-.75c2.695-1.008 2.695-1.008 3.875-3.125A49 49 0 0 0 179 184h2v-2h2v-2h2l2-8h2v-2h6v-2h2v-2h3l1-4h3z"/><path fill="#fbc30f" d="M7 167c4.875.875 4.875.875 6 2 1.515.232 3.038.412 4.563.563l2.503.253L22 170v2h4l2 3c2.06.724 2.06.724 4 1v2h4v2l1.75.414c5.298 1.38 9.976 3.103 14.25 6.586l3 1v2h3l1 3a396 396 0 0 0 5 3v2l2.313.313C69 199 69 199 72 202H52v2H42v-2h-3l-1-4h-5l-1-4h-7v-2h-3v-2h-2v-2h-5v-2h-4v-2H9c-1.698-5.838-2.253-10.931-2-17"/><path fill="#fbc506" d="M118 10h10c.043 2 .04 4 0 6l-1 1c-1.348 6.701-1.174 13.468-1.205 20.28l-.03 4.022q-.04 5.435-.068 10.87-.035 5.69-.076 11.379-.074 10.762-.138 21.525a34189 34189 0 0 1-.16 24.515q-.17 25.204-.323 50.409h-3V16h-4v144h-3V16l2-1c.656-2.527.656-2.527 1-5"/><path fill="#fac313" d="M5 112c4.71-.234 4.71-.234 7.313 1.875C14 116 14 116 14 118h2v2h2v2l4 2v2h2v2h2v2l4 2v2h2v2h2v2h2v2l4 1 1 7h2v2h5v4h3c.487 7.304.487 7.304-1.75 10.5C47 166 47 166 43 166l-1-5-4 1-2-8h-6v-2h-2v-2h-3v-4h-3v-2h-6v-2h-2c-1.656-1.68-1.656-1.68-3.5-3.875C8.71 136.01 6.96 133.96 5 132c-.227-2.063-.227-2.063-.195-4.57l.02-2.715.05-2.84.027-2.863Q4.938 115.505 5 112"/><path fill="#f9c312" d="M211 60h4l1 4h3c1.82 3.057 3.039 5.144 2.875 8.75A333 333 0 0 1 218 86h-2l-.875 2.625L212 98h-2v2h-2l-.937 2.875C206 106 206 106 205 108h-2l-.742 2.477c-1.483 4.155-3.376 7.976-5.383 11.898l-1.129 2.23q-1.369 2.7-2.746 5.395h-2l-.84 1.723c-1.558 3.058-3.304 6-5.039 8.96-1.183 2.445-1.701 4.644-2.121 7.317h-3c.733-4.086 2.687-7.595 4.563-11.25l.998-1.969Q186.777 132.39 188 130h2l.688-2.375c1.719-4.748 3.993-9.146 6.312-13.625h2l2-8h2l2-10h-3l-2-8-2 1v8l-4-1v-2h-2l-.375 2.75c-.546 2.84-1.198 4.776-2.625 7.25h-2v2h-2v2h-2c1.31-4.234 2.944-8.074 5-12h2l.938-2.875C192 90 192 90 193 88h2l.805-2.602c1.205-3.427 2.667-6.54 4.32-9.773l1.633-3.21L203 70h2l.438-1.875C206 66 206 66 207 64h3z"/><path fill="#fcf1b6" d="M176 20h4v2h3v2h2c1.354 2.709 1.065 5.01 1 8h-2l-.375 3.625c-.456 3.673-1.432 6.866-2.625 10.375-.54 2.477-1.017 4.963-1.492 7.453-.708 3.552-1.6 7.041-2.508 10.547h-2l.145 2.445c-.18 4.4-1.231 8.22-2.458 12.43l-.646 2.316c-1.069 3.758-2.24 7.428-3.643 11.075-1.099 2.935-1.914 5.545-2.46 8.609l-.477 2.547L165 106a647 647 0 0 1-.937 5.125l-.403 2.258c-.73 2.897-1.801 5.606-2.873 8.39-1.398 3.955-2.318 8.026-3.287 12.102-1.65 6.776-3.394 13.474-5.5 20.125h2l.75-2.5c1.437-4.024 3.274-7.72 5.25-11.5h2l.75-2.625c1.32-3.563 3.135-6.236 5.25-9.375.77-2.226.77-2.226 1-4h2l2-6h2l.758-2.57c1.338-3.696 3.115-6.944 5.117-10.305 2.9-4.961 5.638-9.943 8.125-15.125h2l1-4h2l.754-2.484c1.45-4.09 3.248-7.889 5.184-11.766l1.052-2.18 1.037-2.086.93-1.883C204 64 204 64 207 62l1-2.562L209 57l3-1v-2h3v2h2q1.007 1.935 2 3.875l1.125 2.18C221 64 221 64 221 66h2c1.347 7.224 1.347 7.224-.312 10.938C221 79 221 79 219 80l1.063-2.625c1.024-3.687.817-5.696-.063-9.375l-.562-2.375c-.145-.536-.29-1.072-.438-1.625h-3l-1-4c-1.985.267-1.985.267-4 1l-1 3h-3l-2 6h-2l-.805 2.602c-1.205 3.427-2.667 6.54-4.32 9.773l-1.633 3.21L195 88h-2l-.937 2.875C191 94 191 94 190 96h-2l-.687 2.375c-1.72 4.748-3.994 9.146-6.313 13.625h-2l-.937 2.875C177 118 177 118 176 120h-2l-.75 2.5c-1.437 4.024-3.274 7.72-5.25 11.5h-2l-.875 2.75c-.89 2.572-1.84 4.863-3.125 7.25h-2v4h-2l-.781 2.602c-1.265 3.525-2.835 6.54-4.719 9.773l-1.844 3.21L149 166h-2c-.336-4.481.508-7.63 2.2-11.766 1.42-3.963 2.08-8.096 2.8-12.234h2l-.148-3.516c.001-4.37 1.07-8.141 2.523-12.234 1.96-5.84 3.369-11.472 4.168-17.602C161 106 161 106 161.98 103.125c1.142-3.5 1.663-6.853 2.145-10.5l.508-3.773L165 86h2l.113-1.766c.56-6.98 2.075-13.484 3.887-20.234q.6-2.373 1.188-4.75L173 56h3v-8h2v-6h2c1.085-5.891 2-11.996 2-18l-1.875-.437C178 23 178 23 176 22z"/><path fill="#f0c62a" d="M233.668 107.828 236 108c4.52 19.835 4.52 19.835 1.563 25.75L236 136h-3l-.937 1.875L230 142h-2v2h-4l1-6h2v-2h2v-2h2v-2h2l1-14-8 1-2 5h-2v2h-2v2h-3l-.437 2.875C216 134 216 134 215 136h-4v2h-3v2l-2.25.813c-2.658 1.147-4.596 2.264-6.75 4.187l-1 3c-3.062 1.188-3.062 1.188-6 2v2c-1.875 2.125-1.875 2.125-4 4h-2v2h-2l-.687 1.875c-1.692 2.74-3.305 3.175-6.313 4.125v-2h2v-2h2l1-4h2v-2h4l1-4h2v-2h2v-2h2v-2c1.875-2.125 1.875-2.125 4-4h2v-2h2v-2h2v-2h3l1-4h2v-2h3l1-4h2v-2h2v-2h2v-2h3l.688-1.625c4.566-8.262 4.566-8.262 8.98-8.547"/><path fill="#f9c317" d="M70 128c2.645 3.125 3.844 6.088 5 10h2l.953 1.723 1.297 2.34 1.371 2.476a347 347 0 0 0 3.692 6.399C86 154 86 154 86 156h2v4h2l1 4h2l-1-3.75c-.799-2.996-1-5.051-1-8.25h3v8h2v16H86l.688 2.188C87 181 87 181 85.812 183.813L84 186h-4v-2h-4v-2l-3-1v-5a56.5 56.5 0 0 1 7 4v-4h-2l1-8 1 2h2l-1-10h3l-1-8h-2v-2h-2v-2h-3l-3-12h-2z"/><path fill="#efcc4e" d="M74 18c2.355 3.18 2.175 6.151 2 10-2.463-2.463-2.998-4.707-4-8-4.983.586-6.323 1.882-11 5l1 15h2l2 16h2l1 12h2c2.47 3.816 2.438 7.847 2.625 12.25l.117 2.258c.094 1.83.177 3.661.258 5.492h3c1.506 3.011 1.334 6.19 1.5 9.5.344 6.187.804 12.34 1.5 18.5l-2-1a132 132 0 0 1-1.875-7.812c-1.12-5.068-2.292-9.987-4.062-14.876C67.735 79.983 65.51 66.803 63 54h-2l-.367-1.977c-.74-3.858-1.47-7.554-2.758-11.273-.97-3.047-1.026-5.572-.875-8.75h-2c-.227-3.328-.322-5.418 1.313-8.375C58 22 58 22 61 22v-2h3v-2c6.942-1.42 6.942-1.42 10 0"/><path fill="#faeaa2" d="M204 160h4v4h-3v2h-2v2h-2v2h-2v2h-2l-1 4h-4v4h-3v2h-2v2h-2v2h-2v2h-2l-1 4h4v-2h2v-2h4v-2l7-2v-2h4v-2c3.228-2.152 4.284-2.2 8-2v-2h4v-2h2v-2h4v-2h5v2l-3.148 1.54c-6.986 3.438-13.858 6.908-20.477 11.023-2.68 1.622-5.422 3.09-8.187 4.562-3.008 1.605-5.382 3.039-8 5.25-2.84 2.11-4.736 1.946-8.188 1.625v4l-9 2c1-4 1-4 2-6h2v-2l2.375-.75c2.695-1.008 2.695-1.008 3.875-3.125A49 49 0 0 0 179 184h2v-2h2v-2h2l2-8h2v-2h6v-2h2v-2h3l1-4h3z"/><path fill="#f3eca6" d="M114.563 5.938 117 6l-2 2h-3v148h-2c-.182-.568-.364-1.137-.55-1.723-1.194-3.664-2.374-7.121-4.075-10.59-1.922-5.153-2.115-10.226-2.375-15.687 3.266 3.266 3.326 7.7 4.219 12.129L108 143l2 1-.021-2.048q-.255-24.662-.474-49.325-.104-11.926-.229-23.853-.109-10.395-.195-20.791-.044-5.505-.107-11.008c-.048-4.097-.08-8.194-.11-12.29-.016-1.217-.032-2.433-.05-3.686-.005-1.118-.01-2.235-.017-3.386l-.027-2.936c.37-4.293.996-8.623 5.793-8.74"/><path fill="#fbeda8" d="M43 80h2l1 4h2l1 4h2c1.765 3.088 2 4.233 2 8h2c4 6.625 4 6.625 4 10h2q1.007 1.935 2 3.875l1.125 2.18C65 114 65 114 65 116h2l.875 2.938c.767 3.169.767 3.169 3.125 4.062.852 2.066.852 2.066 1.625 4.563.26.826.52 1.652.79 2.503L74 132h2q2.193 3.84 4.375 7.688l1.25 2.185c1.702 3.005 3.268 5.84 4.477 9.084L87 153l3 1-1.27-3.242c-2.077-5.547-3.748-11.203-5.418-16.883l-.97-3.207-.916-3.113-.831-2.798c-.645-2.99-.697-5.706-.595-8.757l1 2h4l.516 3.742c1.255 8.862 2.654 17.646 4.609 26.383l.517 2.312c.874 3.885.874 3.885 2.358 7.563.04 2 .043 4 0 6h-2l-1-4h-2v-4h-2l-.953-1.723-1.297-2.34-1.371-2.476a347 347 0 0 0-3.692-6.399C77 140 77 140 77 138h-2a652 652 0 0 1-2-3.875l-1.125-2.18C71 130 71 130 71 128h-2q-1.256-2.434-2.5-4.875l-1.406-2.742C64 118 64 118 64 116h-2c-3-5.75-3-5.75-3-8h-2l-2-8h-3a301 301 0 0 1-2-3.75l-1.125-2.11C48 92 48 92 48 88h-2c-3-5.75-3-5.75-3-8"/><path fill="#f1c438" d="M171 222h47c-.787 4.722-1.574 7.754-3.437 12-1.35 3.094-2.59 6.089-3.598 9.313C210 246 210 246 208 247a142 142 0 0 1-6.377.114h-1.982c-2.164 0-4.328-.009-6.493-.016l-4.497-.005q-5.924-.006-11.847-.024-6.042-.014-12.085-.02-11.86-.016-23.719-.049l1-3h67v-8l1-2h3l2-10h-44z"/><path fill="#ecca4c" d="M6 164h5v2h2v2h3v2c-3.235-.719-5.84-1.736-9-3l2 17h2v2h4v2h5v2h2v2h3v2h7l1 4h5l1 4h3v2h12l1.688 3.438c1.734 3.117 1.734 3.117 5.062 4.5L63 212l1 4-10-2v-2h-4v-2h-2v-2h-5v-2h-4v-2l-1.75-.437L31 202v-2h-3v-2h-3v-2h-6v-2h-2v-2h-4v-2h-3v-2H8c-4.762-17.969-4.762-17.969-3.062-22.5z"/><path fill="#f2c21e" d="M113 10h5v5l-3 1 .006 2.238q.066 26.94.098 53.88.014 13.029.047 26.057.03 11.355.037 22.708.003 6.013.023 12.026.02 5.658.015 11.317 0 2.077.012 4.155c.01 1.89.007 3.78.003 5.671l.005 3.207c-.247 2.752-.828 4.397-2.246 6.741h-3c-1.43-2.354-2.087-3.48-1.625-6.25L109 156l1 4h3z"/><path fill="#fcf2b7" d="M129 8h2c.957 6.373 1.111 12.537 1.038 18.974l-.025 3.245c-.027 3.518-.063 7.036-.099 10.554l-.064 7.35q-.069 7.684-.147 15.368-.098 9.866-.178 19.733-.065 7.578-.139 15.158a6118 6118 0 0 0-.065 7.28q-.043 5.07-.1 10.14l-.022 3.057-.034 2.778-.024 2.421C131 126 131 126 130 128h2l-1 16h3l-3 16h-2z"/><path fill="#f7c41c" d="M211 60h4l1 4h3c1.897 3.187 3.031 5.247 2.875 9-.947 3.245-2.254 6.04-3.875 9h-2l-1 2v-4c-3.122 1.309-3.122 1.309-5 4h-2v-4h-9c1.11-3.487 2.263-6.775 4-10h2l.438-1.875C206 66 206 66 207 64h3z"/><path fill="#fbc30e" d="M39 142v2h2v4h2v2h5v4h3c.487 7.304.487 7.304-1.75 10.5C47 166 47 166 43 166l-1-5-4 1-2-8h-6v-2h-2v-2h-3v-5l2.188-.375c2.82-.541 2.82-.541 5.375-1.687C35 142 35 142 39 142"/><path fill="#fcefb1" d="M168 16h2v2h6v2h-6v2h-2l-1 10h-2v8h-2l-.078 1.836c-.387 5.715-1.58 10.135-3.867 15.36C157.019 62.61 156.078 68.33 155 74h-2l-.25 3.25c-.444 3.63-1.394 6.81-2.625 10.25-1.999 5.683-3.165 11.324-4.173 17.244-.87 5.09-.87 5.09-1.952 7.256h-2l-.184 2.117-.254 2.758c-.08.905-.162 1.81-.246 2.742C141 122 141 122 140 124c-.229 2.037-.41 4.08-.562 6.125l-.254 3.32L139 136h-2l-2 8h-1c-.207-5.789.408-10.43 2-16h2l-.117-2.57c.128-3.739.902-6.732 1.992-10.305 1.667-5.534 1.667-5.534 3.125-11.125 1.95-8.002 4.304-15.902 6.863-23.728 2.717-8.359 4.635-16.766 6.34-25.385C157 51 157 51 158 48h2l-.187-3.375c0-4.287.995-7.841 2.328-11.89 1.267-4.034 2.173-8.146 3.113-12.266C166 18 166 18 168 16"/><path fill="#faeeb5" d="M30 54q2.227 3.87 4.438 7.75c.42.73.841 1.46 1.275 2.21l1.22 2.15 1.127 1.967C39.02 70.038 39.55 71.87 40 74h2l1 6h-3l-1-4h-2l-1-8h-2a652 652 0 0 1-2-3.875l-1.125-2.18C30 60 30 60 30 58h-4l-.437 2.625L24 70h-3c.76 8.238 4.101 14.19 8.32 21.094C31 94 31 94 31 96h3v3h2v3h2l1 4h2l.516 1.906c1.252 4.425 2.578 8.521 4.734 12.594L48 124l-1 2c-3.05-3.66-7-9.079-7-14h-2a652 652 0 0 1-2-3.875l-1.125-2.18C34 104 34 104 34 102h-2v-4h-3a1505 1505 0 0 1-3-5.875l-1.687-3.305C23 86 23 86 23 84h-2l-2-8h-2v-8h2l1-4h2l.313-2.75C23.443 55.908 24.357 54 30 54"/><path fill="#fbeeab" d="M5 108h6l1 4h2l1 4h2v2h3l.313 1.938L21 122l3 1c1.688 1.438 1.688 1.438 3 3v2h3v2h2l1 4h3l.188 1.875L37 138l2.5 1 2.5 1c.813 2.125.813 2.125 1 4h3v2h2c5 5.476 5 5.476 5 8h4v2h2v4h-3v-2h-5v-4h-3v-4h-5v-2h-2l-.812-3.437L39 141l-3-1v-2h-2v-2h-2v-2h-2c-2.125-1.875-2.125-1.875-4-4v-2h-2v-2h-2c-2.125-1.875-2.125-1.875-4-4v-2h-2v-2h-2l-1.812-2.437C9.683 112.629 8.674 112.528 5 112c-.67 11.985-.67 11.985 2.848 23.04 1.963 1.848 3.974 3.382 6.152 4.96v2h2v2h-3v-2h-2v-2H9v-2H7v-2H5c-3.668-5.595-3.07-9.927-2.25-16.25l.305-2.758c.768-6.638.768-6.638 1.945-8.992"/><path fill="#ecca47" d="M176 20h4v2h3v2h2c1.354 2.709 1.065 5.01 1 8h-2l-.375 3.625c-.456 3.673-1.432 6.866-2.625 10.375-.54 2.477-1.017 4.963-1.492 7.453-.708 3.552-1.6 7.041-2.508 10.547h-2l.145 2.445c-.18 4.4-1.231 8.22-2.458 12.43l-.646 2.316c-1.435 5.045-3.142 9.92-5.041 14.809h-2l-1 4a673 673 0 0 1-.062-4.75l-.036-2.672c.09-2.36.429-4.323 1.098-6.578h2l.113-1.766c.56-6.98 2.075-13.484 3.887-20.234q.6-2.373 1.188-4.75L173 56h3v-8h2v-6h2c1.085-5.891 2-11.996 2-18l-1.875-.437C178 23 178 23 176 22z"/><path fill="#fdf3ad" d="M58 214c3.012.644 5.517 1.65 8.25 3.063l2.14 1.097L70 219v2H23l2 11h2q.976 2.34 1.938 4.688l1.09 2.636c.93 2.562 1.469 5.004 1.972 7.676l2.534-.027q11.85-.12 23.702-.18 6.091-.03 12.183-.095 5.884-.063 11.768-.078 2.24-.01 4.48-.043c14.417-.2 14.417-.2 20.333 4.423-2 1-2 1-3.742.453l-2.133-.87c-5.73-2.007-11.106-1.98-17.125-1.911l-3.385.006q-3.514.01-7.029.04c-3.603.032-7.205.042-10.809.048l-6.84.03-3.279.014-3.006.029-2.656.02C45 248.782 45 248.782 44 250c-2.5.125-2.5.125-5 0l-1-1a70 70 0 0 0-4.062-.562L30 248v-2h-2l-.55-1.977C26.02 239.051 24.403 234.6 22 230c-.69-1.992-1.36-3.991-2-6l-1-2 1-2h4v-2h5v2h31l1-4-3-1z"/><path fill="#eec941" d="M64 214h5v2l4 1q.57 2.988 1 6c-1 1-1 1-2.905 1.12l-2.523-.006h-2.851l-3.1-.016-3.157-.005c-3.342-.005-6.684-.018-10.026-.03q-3.39-.008-6.78-.014Q34.33 224.032 26 224v4h2c1.591 4.177 2.213 7.532 2 12-2.624-3.061-3-3.732-3-8h-2c-1.51-4.06-2-6.546-2-11h47c-1.392-2.784-3.156-2.979-6-4z"/><path fill="#f0c83d" d="M178 148h2l-1 6h-2l-2 6h-2l-1 6h-2v2h-2v2h4l.25-1.875c.75-2.125.75-2.125 2.813-3.375L177 164c-1.875 5.75-1.875 5.75-3 8h-3v4h-2v4h-4v2h-2v2h-5l1-8h3l1-6h2l1-4h2l1-6h3l.75-2.625c1.328-3.586 2.936-6.338 5.25-9.375"/><path fill="#f8c413" d="M234 167c.545 7.959-.511 13.82-4 21h-3v-6h-3v-6h-5v2c-3.634 2.326-6.77 2.163-11 2 2.297-2.297 4.592-3.56 7.438-5.125l2.933-1.633C221 172 221 172 224 172v-2l2.875-.937C232.941 167 232.941 167 234 167"/><path fill="#fbf9c6" d="m59 144 2 4h2q1.007 1.934 2 3.875l1.125 2.18C67 156 67 156 67 158h3v2h3v2h2v8h2l1 6h2v4c-4.732-1.928-7.68-5.603-11.125-9.25-1.855-1.974-1.855-1.974-4.875-2.75v-2h-2l-1-3-2-1v-2h3v2h2a91 91 0 0 1 4 4v-6h-2c-3-5.75-3-5.75-3-8h-2c-1.765-3.088-2-4.233-2-8"/><path fill="#edd257" d="m38 166 5 2 2.75.875C48 170 48 170 48.813 172.125L49 174h3l1 4h3l1 4h3l1 6 3 1v3l1.938.313L68 193l1 3 3 1c1.688 1.438 1.688 1.438 3 3v2c-5.52-.812-10.28-2.749-14-7l-1.687-1.687L58 192h2c-.102-2.947-.102-2.947-1-6-2.463-1.453-2.463-1.453-5-2v-2h-2v-2h-2c-2.125-1.875-2.125-1.875-4-4v-2l-4-2v-2h-2v-2h-2z"/><path fill="#ebc83d" d="M157 60h1c.207 5.789-.408 10.43-2 16h-2l-.184 2.555-.254 3.32c-.08 1.09-.162 2.181-.246 3.305C153 88 153 88 152 90h-2l-.297 2.938c-1.081 9.955-3.02 19.421-5.703 29.062l-.573 2.062A964 964 0 0 1 140 136h-1c-.407-8.51.57-15.839 3-24h2l.078-1.695c.55-7.784 2.665-14.865 4.922-22.305.76-2.622 1.505-5.248 2.25-7.875L153 74h2c.09-1.013.09-1.013.184-2.047l.254-2.703c.08-.882.162-1.763.246-2.672A44 44 0 0 1 157 60"/><path fill="#fbecae" d="M218 80c1.125 3.75 1.125 3.75 0 6h-2l-.875 2.625L212 98h-2v2h-2l-.937 2.875C206 106 206 106 205 108h-2l-.742 2.477c-1.483 4.155-3.376 7.976-5.383 11.898l-1.129 2.23q-1.369 2.7-2.746 5.395h-2l-.84 1.723c-1.558 3.058-3.304 6-5.039 8.96-1.183 2.445-1.701 4.644-2.121 7.317h-3c.733-4.086 2.687-7.595 4.563-11.25l.998-1.969Q186.777 132.39 188 130h2l.688-2.375c1.719-4.748 3.993-9.146 6.312-13.625h2l2-8h2v-2h2l.938-2.875C207 98 207 98 208 96h2l.75-2.5c1.437-4.024 3.274-7.72 5.25-11.5h2z"/><path fill="#f6c52c" d="M113 16h1q.035 28.281.052 56.562.007 13.13.023 26.261.015 11.442.02 22.885 0 6.06.01 12.121.011 5.701.008 11.403 0 2.096.006 4.19.006 2.858.001 5.712l.003 3.232C114 161 114 161 113 164h-3c-1.43-2.354-2.087-3.48-1.625-6.25L109 156l1 4h3z"/><path fill="#f0d057" d="M87 68c2.758 2.758 3.139 5.878 4 9.563l.533 2.199a415 415 0 0 1 2.53 11.176 68 68 0 0 0 2.25 8c1.618 4.705 3.01 9.466 4.374 14.25l.687 2.341c1.204 4.275 1.89 7.982 1.626 12.471-3.077-5.68-5.198-11.58-6-18h-2v-2h-2l-.297-2.937c-.949-8.707-2.512-16.915-4.898-25.344C86.918 75.62 86.86 72.175 87 68"/><path fill="#fefad3" d="M114.563 5.938 117 6c-2 2-2 2-5 3l-1 141h-2l-1-6h2l-.021-2.048q-.255-24.662-.474-49.325-.104-11.926-.229-23.853-.109-10.395-.195-20.791-.044-5.505-.107-11.008c-.048-4.097-.08-8.194-.11-12.29-.016-1.217-.032-2.433-.05-3.686-.005-1.118-.01-2.235-.017-3.386l-.027-2.936c.37-4.293.996-8.623 5.793-8.74"/><path fill="#edca47" d="M232 112h4c1.937 20.127 1.937 20.127 0 24h-3l-.937 1.875L230 142h-2v2h-4l1-6h2v-2h2v-2h2v-2h2l1-14h-8z"/><path fill="#f1cb42" d="M182 108c.981 3.053.981 4.947 0 8h-2l-1 6h-2l-1 8h-3v2h-3l.207 2.664c-.243 3.919-1.236 5.562-3.52 8.711l-1.863 2.648L163 148h-3v-4h2l.875-2.75c.89-2.572 1.84-4.863 3.125-7.25h2l.75-2.5c1.437-4.024 3.274-7.72 5.25-11.5h2l.938-2.875C178 114 178 114 179 112h2z"/><path fill="#f6e497" d="M19 76h2q1.78 3.202 3.555 6.406a564 564 0 0 0 2.89 5.125l1.367 2.406 1.27 2.215C31 94 31 94 31 96h3v3h2v3h2l1 4h2l.516 1.906c1.252 4.425 2.578 8.521 4.734 12.594L48 124l-1 2c-3.05-3.66-7-9.079-7-14h-2a652 652 0 0 1-2-3.875l-1.125-2.18C34 104 34 104 34 102h-2v-4h-3a1505 1505 0 0 1-3-5.875l-1.687-3.305C23 86 23 86 23 84h-2z"/><path fill="#efda7a" d="M74 18c2.355 3.18 2.175 6.151 2 10-2.463-2.463-2.998-4.707-4-8-4.144.377-7.344 1.802-10.602 4.32-2.297 2.76-2.145 5.094-1.914 8.582.765 4.596 1.893 9.087 3.18 13.564 1.72 6.138 1.72 6.138.336 9.534v-2h-2l-.367-1.977c-.74-3.858-1.47-7.554-2.758-11.273-.97-3.047-1.026-5.572-.875-8.75h-2c-.227-3.328-.322-5.418 1.313-8.375C58 22 58 22 61 22v-2h3v-2c6.942-1.42 6.942-1.42 10 0"/><path fill="#eecb4d" d="M16 170h6v2h4l2 3c2.06.724 2.06.724 4 1v2h4v2l1.75.414c5.298 1.38 9.976 3.103 14.25 6.586l3 1v2h3v2h-4v-2H44v-2h-3v-2h-2l-1.875-2.125c-3.418-3.602-7.809-5.338-12.23-7.453C21.68 174.843 18.86 173.145 16 171z"/><path fill="#f1cc3c" d="M154 128h2l-.437 2.5c-.616 3.827-1.099 7.652-1.563 11.5h-2l-.113 1.906c-.397 5.167-1.196 9.485-3.188 14.266-.977 2.554-1.361 5.125-1.699 7.828 2.683-1.341 3.22-2.939 4.625-5.562l1.352-2.504L154 156c1.072 3.652.764 6.264 0 10h-2v2h-2v2c-3 2-3 2-6 2-.8-7.716 1.05-13.534 3.82-20.703 1.382-3.861 1.936-7.224 2.18-11.297h2z"/><path fill="#efc62d" d="M204 160h4v4h-3v2h-2v2h-2v2h-2v2h-2l-1 4h-9v5l-3 1v2l-5 2v-2h2v-2h2v-2h2l2-8h2v-2h6v-2h2v-2h3l1-4h3z"/><path fill="#fdf1b9" d="M5 108h6l1 4h2l1 4h2v2h3l.313 1.938L21 122l3 1c-4 0-4 0-6-1v-2h-2v-2h-2l-1.812-2.437C9.683 112.629 8.674 112.528 5 112c-.67 11.985-.67 11.985 2.848 23.04 1.963 1.848 3.974 3.382 6.152 4.96v2h2v2h-3v-2h-2v-2H9v-2H7v-2H5c-3.668-5.595-3.07-9.927-2.25-16.25l.305-2.758c.768-6.638.768-6.638 1.945-8.992"/><path fill="#f6e799" d="M76 28c2.473 2.473 2.77 4.23 3.656 7.602l.91 3.425.934 3.598.934 3.527q.895 3.397 1.773 6.798c.48 1.848.974 3.692 1.492 5.53.998 3.61 1.391 5.946.301 9.52l-1-4h-3c-2.106-5.528-3.379-10.07-3-16h-2c-1.15-4.09-1.11-8.032-1.062-12.25l.013-2.258q.02-2.745.049-5.492"/><path fill="#fbf2b6" d="M230 164c4.875.875 4.875.875 6 2-.012 2.541-.094 5.03-.25 7.563l-.133 2.2c-.384 5.225-1.337 9.478-3.617 14.237h-3v2h-5v2h-3v2h-5v2h-3v2h-5c3.829-3.232 7.788-5.785 12.125-8.25l1.879-1.102c2.873-1.643 4.63-2.648 7.996-2.648l.938-3.875c.538-2.226 1.036-4.072 2.062-6.125.228-1.87.41-3.747.563-5.625l.253-3.04L234 167l-2.187 1.5c-2.961 1.58-4.526 1.782-7.813 1.5v-2l6-2z"/><path fill="#e9d271" d="M32 246h71v2h4v2h5v2l16 1c-2.342 2.342-2.82 2.295-6 2.313-6.349-.154-12.567-1.477-17.687-5.34-5.964-3.414-13.2-2.579-19.872-2.582q-2.271-.023-4.543-.05c-3.967-.044-7.934-.064-11.9-.08-4.057-.019-8.112-.06-12.168-.1A4672 4672 0 0 0 32 247z"/><path fill="#edca41" d="M16 144h6v2h3v4h3v2h2v4h5l3 10c-2.437-.75-2.437-.75-5-2-.812-2.125-.812-2.125-1-4h-3v-2h-2l-1-4h-2v-2h-2v-2h-3v-2h-2z"/><path fill="#f4e48e" d="M168 16h2v2h6v2h-6v2h-2l-1 10h-2v8h-2l-.113 2.047-.2 2.703-.175 2.672c-.576 2.901-1.588 4.37-3.512 6.578.311-7.447.764-14.395 3.176-21.477 1.29-3.952 2.154-8.003 3.078-12.054C166 18 166 18 168 16"/><path fill="#f6d96f" d="m35 202 2.059.492c3.367.582 6.588.582 10.004.633 6.44.39 6.44.39 8.562 2.46.867 1.77 1.626 3.592 2.375 5.415 2.621 1.045 2.621 1.045 5 1l1 4-10-2v-2h-4v-2h-2v-2h-5v-2h-4v-2l-4-1z"/><path fill="#fbeea9" d="M205 134h3c-.893 4.264-2.013 6.302-5.562 8.688l-1.88 1.136c-1.876 1.185-1.876 1.185-2.558 4.176-3.062 1.188-3.062 1.188-6 2v2c-1.875 2.125-1.875 2.125-4 4h-2v2h-2l-.687 1.875c-1.692 2.74-3.305 3.175-6.313 4.125v-2h2v-2h2l1-4h2v-2h4l1-4h2v-2h2v-2h2v-2c1.875-2.125 1.875-2.125 4-4h2v-2h2v-2h2z"/><path fill="#edca42" d="m204 140 1 3-1.875 1.25c-2.193 1.806-3.053 3.16-4.125 5.75h-3v2c-1.812 2.125-1.812 2.125-4 4h-3v2h-2v2h-2v4h-3v2h-2v2c-1.875 2.125-1.875 2.125-4 4h-2c1.223-4.483 2.523-6.932 6-10l2.125-2.25C184 158 184 158 186 158v-2c1.875-2.125 1.875-2.125 4-4h2v-2c3-2 3-2 6-2l.188-1.75c1.132-3.137 3.154-4.342 5.812-6.25"/><path fill="#ebc847" d="M5 112c4.71-.234 4.71-.234 7.313 1.875C14 116 14 116 14 118h2v2h-3v-2h-2v-2H6l1 16h2v2h3v2h3l1 4h3l1 4h-4v-2h-2c-1.656-1.68-1.656-1.68-3.5-3.875C8.71 136.01 6.96 133.96 5 132c-.227-2.063-.227-2.063-.195-4.57l.02-2.715.05-2.84.027-2.863Q4.938 115.505 5 112"/><path fill="#fceebf" d="M212 54h3v2h2q1.007 1.935 2 3.875l1.125 2.18C221 64 221 64 221 66h2c1.347 7.224 1.347 7.224-.312 10.938C221 79 221 79 219 80l1.063-2.625c1.024-3.687.817-5.696-.063-9.375l-.562-2.375L219 64h-3l-1-4c-1.985.267-1.985.267-4 1l-1 3h-2v-6l4-2z"/><path fill="#f9e9a1" d="m80 116 1 2h4l.55 3.883C87.016 132.02 88.67 142.019 91 152h-2l-.61-2.108-2.765-9.517-.96-3.316-.938-3.223-.857-2.952a149 149 0 0 0-1.97-6.038c-.978-3.092-1.053-5.623-.9-8.846"/><path fill="#fbebab" d="M176 20h4v2h3v2h2c1.354 2.709 1.065 5.01 1 8h-2l-.375 3.625c-.456 3.673-1.432 6.866-2.625 10.375-.52 2.604-.993 5.21-1.437 7.828C179 56 179 56 177 58l1-16h2c1.085-5.891 2-11.996 2-18l-1.875-.437C178 23 178 23 176 22z"/><path fill="#fbf2b5" d="M6 164h5v2h2v2h3v2c-3.235-.719-5.84-1.736-9-3l2 17h2v2h2a125 125 0 0 1 4 6h-4v-2h-3v-2H8c-4.762-17.969-4.762-17.969-3.062-22.5z"/><path fill="#f6c227" d="M48 190h6v2l2.188.313c3.09.755 5.23 1.842 7.812 3.687v2l2.313.313c2.858.73 3.844 1.457 5.687 3.687h-8v-2h-7v-3l-2-1v-2h-7z"/><path fill="#fef6af" d="M179 216v4h10v-2h3v2h19v-2h6v2h3c.625 1.875.625 1.875 1 4l-2 2v-5h-46v-3c3-2 3-2 6-2"/><path fill="#fcf3ba" d="M66 64c4.261 8.07 6.366 17.091 8.49 25.913 1.388 5.735 3.034 11.362 4.776 17.001.748 3.143.87 5.868.734 9.086l-2-1a132 132 0 0 1-1.875-7.812c-1.147-5.184-2.365-10.233-4.125-15.25-1.646-4.724-3.012-9.47-4.25-14.313l-.531-2.02C66.233 71.654 65.824 68.067 66 64"/><path fill="#fbebaa" d="M176 58h1v6h-2l.145 2.445c-.18 4.4-1.231 8.22-2.458 12.43l-.646 2.316c-1.435 5.045-3.142 9.92-5.041 14.809h-1c-.31-5.294.82-9.616 2.313-14.625q.689-2.39 1.375-4.781l.68-2.356C171.7 69.524 172.85 64.762 174 60h2z"/><path fill="#fdf4b8" d="M59 186h2v2l3 1v3l1.938.313L68 193l1 3 3 1c1.688 1.438 1.688 1.438 3 3v2c-5.52-.812-10.28-2.749-14-7l-1.687-1.687L58 192h2z"/><path fill="#ecc93a" d="M99 120c3.27 3.514 3.814 7.227 4.5 11.813.843 5.544 2.21 10.063 4.5 15.187.188 2.938.188 2.938 0 5h-3c-2.143-3.477-2.213-6.212-2.125-10.25l.055-3.266L103 136h-2v-8h-2z"/><path fill="#f1c634" d="M71.188 19.117C73 20 73 20 74.75 23.187 76.801 29.253 76.24 35.688 76 42c-2.004-3.006-2.264-3.898-2.5-7.312-.342-3.81-1.12-7.099-2.5-10.688h-8v2l-3-1a274 274 0 0 1 4.25-3.062l2.39-1.723C69 19 69 19 71.188 19.117"/><path fill="#fcf2b3" d="M91 83c1.853 2.78 2.348 3.99 2.938 7.125.626 3.024 1.352 5.9 2.374 8.813 1.619 4.705 3.012 9.466 4.376 14.25l.686 2.341c1.204 4.275 1.89 7.982 1.626 12.471-2.082-3.843-3.519-7.9-5-12l-1.062-2.875c-1.027-3.42-1.7-6.826-2.364-10.332-.833-4.053-1.91-8.037-2.988-12.031-.569-2.68-.695-5.033-.586-7.762"/><path fill="#f3da7a" d="m41 144 1 2c1.33.345 2.665.675 4 1 3.188 1.313 3.188 1.313 6 3 .875 2.188.875 2.188 1 4h4v2h2v4h-3v-2h-5v-4h-3v-4h-5v-2h-2z"/><path fill="#f6c520" d="M70 128c2.645 3.125 3.844 6.088 5 10h2l.988 1.793c1.89 3.418 3.773 6.82 5.825 10.144C85 152 85 152 85 154h-2v-2h-2v-2h-2v-2h-3l-3-12h-2z"/><path fill="#f0c937" d="M146 108c.563 1.938.563 1.938 1 4l-1 1a781 781 0 0 0-1.324 6.102c-1.328 5.692-3.033 11.29-4.676 16.898h-1c-.407-8.51.57-15.839 3-24h2v-2h2z"/><path fill="#faf2bb" d="M233.668 107.828 236 108c1.637 7.183 3.14 14.605 3 22l-2 2c-1.03-6.697-1.102-13.231-1-20-5.551 2.169-5.551 2.169-10 6h-2c1.87-4.418 4.534-9.841 9.668-10.172"/><path fill="#f2d14e" d="M91 152h3v8h2v10h-3v-2h-3v-2h-2v-6h2l1 4h2l-1-3.75c-.799-2.996-1-5.051-1-8.25"/><path fill="#fef29d" d="M48 247c7.277-.102 14.554-.172 21.832-.22q3.712-.03 7.423-.082c3.562-.048 7.124-.071 10.686-.089l3.338-.062c6.483-.002 10.419.639 15.721 4.453-2 1-2 1-3.764.46l-2.15-.866c-5.513-1.932-10.665-2.069-16.465-2.106l-3.19-.054c-3.331-.054-6.662-.088-9.993-.121l-6.815-.104Q56.313 248.083 48 248z"/><path fill="#f2cd50" d="m59 144 2 4h2q1.007 1.934 2 3.875l1.125 2.18C67 156 67 156 67 158h3v2h3v2h2v8c-3-3.75-3-3.75-3-6h-2l-1-4h-3c-3-5.75-3-5.75-3-8h-2c-1.765-3.088-2-4.233-2-8"/><path fill="#ebc845" d="M7 167c3.998.583 6.813 1.833 10.25 3.938l2.64 1.59C22 174 22 174 23 176h-4v-2h-3v-2H9l1 12c-3.572-5.358-3.122-10.766-3-17"/><path fill="#f7c220" d="M182 108c.981 3.053.981 4.947 0 8h-2l-1 6h-2l-1 8h-3v2h-2c1.451-4.579 3.206-8.976 5.125-13.375l.84-1.941Q177.979 114.34 179 112h2z"/><path fill="#f5d05c" d="M112 112h1v48h-3c-1.43-2.354-2.087-3.48-1.625-6.25L109 152l1 4h2z"/><path fill="#f3d86d" d="M24 60h2l-2 10h-3v6h-4v-8h2l1-4h3z"/><path fill="#fbf1b2" d="M16 170h6v2h4l2 3c2.06.724 2.06.724 4 1v2h4v2l4 1c-3.386 1.129-4.767 1.097-8.121-.293l-3.317-1.894-3.308-1.856c-3.165-1.903-6.236-3.831-9.254-5.957z"/><path fill="#faeca1" d="M178 148h2l-1 6h-2l-2 6h-2l-1 6h-2v2h-2l1-8h3l.75-2.625c1.328-3.586 2.936-6.338 5.25-9.375"/><path fill="#f7c326" d="M158 148h4q.039 2.438.063 4.875l.035 2.742C162 158 162 158 161 160h-3v-2h-3c.507-3.719 1.116-6.735 3-10"/><path fill="#ecd77b" d="m171 218 2 1v1l46 1v5l-1-4h-47z"/><path fill="#fcf3b6" d="M19 76h2q1.75 3.134 3.488 6.273 1.584 2.856 3.18 5.704l1.645 2.96 1.55 2.778C32 96 32 96 32 98h-3a1505 1505 0 0 1-3-5.875l-1.687-3.305C23 86 23 86 23 84h-2z"/><path fill="#fbf0ac" d="M204 160h4v4h-3v2h-2v2h-2v2h-2v2h-2l-1 4h-4l2-4h2l.75-1.75c1.42-2.555 3.19-4.19 5.25-6.25 1.235-2.133 1.235-2.133 2-4"/><path fill="#fbeea5" d="M217 226h2c-.459 4.59-1.828 7.895-3.945 11.898-1.641 3.27-2.825 6.66-4.055 10.102h-7c3.75-2 3.75-2 6-2l.309-2.54c.772-3.867 2.145-7.26 3.754-10.835l.853-1.941A803 803 0 0 1 217 226"/><path fill="#efc63a" d="M215 222h3c-.578 4.363-1.672 7.976-3.437 12-1.726 3.955-3.248 7.889-4.563 12h-2q.212-2.437.438-4.875c.08-.905.162-1.81.246-2.742C209 236 209 236 210 234h3z"/><path fill="#fcf3b9" d="M219 170h5v2l-3.395 1.68-4.417 2.195-2.237 1.105-2.158 1.075-1.984.984c-2.056 1.054-2.056 1.054-4.809 2.961h-4v-2c3.228-2.152 4.284-2.2 8-2v-2h4v-2h2v-2h4z"/><path fill="#eeca48" d="M154 128h2l-.437 2.5c-.616 3.827-1.099 7.652-1.563 11.5h-2l-.113 1.906c-.454 5.905-1.567 10.647-3.887 16.094-1.016-3.047-1.01-3.988-.441-7.012l.42-2.295.458-2.38.448-2.417c.365-1.966.74-3.931 1.115-5.896h2z"/><path fill="#f8e99c" d="M203 104h2v4h-2l-.687 2.375c-1.72 4.748-3.994 9.146-6.313 13.625h-3c1.11-3.487 2.263-6.775 4-10h2l2-8h2z"/><path fill="#ebca45" d="M59 26h1l2 14h2l2 18c-2.818-2.818-3.186-6.108-4.062-9.875l-.526-2.184c-.476-1.979-.944-3.96-1.412-5.941l-.55-2.078c-.569-2.43-.545-4.68-.513-7.172l.028-2.703z"/><path fill="#fcf7b7" d="m176 164 1 2a101 101 0 0 1-3 6h-3v2h-3v2h-4c1.75-5.75 1.75-5.75 4-8v2h4l.313-1.875C173 166 173 166 176 164"/><path fill="#e9ca4b" d="M234 167c.545 7.959-.511 13.82-4 21h-3v-2h2l.375-2.375c.786-4.56 1.702-9.09 2.625-13.625l-3-1c3-2 3-2 5-2"/><path fill="#f4df82" d="m26 154 9 2 3 10c-2.437-.75-2.437-.75-5-2-.812-2.125-.812-2.125-1-4h-3v-2h-2z"/><path fill="#fae9a0" d="M222 144h2v4h-2v2h-3v2h-2v2h-2l-1 4h-2v2h-4l3-6h3v-2c1.496-1.437 1.496-1.437 3.438-3 2.714-2.145 2.714-2.145 4.562-5"/><path fill="#eac63f" d="M206 180h2v2l-5 2v2h-2v2h-4v2h-5v2h-5c2.024-2.175 3.903-3.647 6.54-5.008l2.007-1.05 2.078-1.067c4.472-2.048 4.472-2.048 8.375-4.875"/><path fill="#fbefac" d="M103 128c2.819 2.819 3.226 6.11 4.125 9.875.182.72.364 1.441.55 2.184.844 3.44 1.325 6.378 1.325 9.941h2l1 6h-2c-.182-.568-.364-1.137-.55-1.723-1.194-3.664-2.374-7.121-4.075-10.59-1.922-5.153-2.115-10.226-2.375-15.687"/><path fill="#fcf3b9" d="m57 32 1 4h2c.7 2.58 1.385 5.164 2.063 7.75l.603 2.21c.971 3.75 1.488 6.343.334 10.04v-2h-2l-.367-1.977c-.74-3.858-1.47-7.554-2.758-11.273-.97-3.047-1.026-5.572-.875-8.75"/><path fill="#edc63b" d="M179 24h3c2.257 4.514.294 10.996-1.062 15.625-.31.784-.62 1.567-.938 2.375h-2l.219-1.906c.586-5.404.882-10.66.781-16.094"/><path fill="#faeba5" d="M198 206v2a418 418 0 0 1-3.812 2l-2.145 1.125C190 212 190 212 187 212v2h-4v2l-4-1 5-2v-2a486 486 0 0 1 4.75-2.5l2.672-1.406C194 206 194 206 198 206"/><path fill="#edcc48" d="m80 116 1 2h4l1 14-1-4h-3c-1.591-4.177-2.213-7.532-2-12"/><path fill="#f1c22e" d="M78 172h3v4h2c1.125 5.75 1.125 5.75 0 8-2.937-.75-2.937-.75-6-2-.875-2.125-.875-2.125-1-4l4 2v-4h-2z"/><path fill="#eac83b" d="M16 120h2v2l4 2v2h2v2h2v2l4 2v2h-5l-2-6h-2v-2h-2v-2h-2z"/><path fill="#fdf3b3" d="M221 118h3v2h-2l-.75 1.777c-1.434 2.55-2.997 3.934-5.25 5.785-2.558 2.112-4.133 3.638-6 6.438h-2l1-4h2v-2h3l1-4h2v-2h2v-2h2z"/><path fill="#efcf56" d="M150 86c1.125 3.75 1.125 3.75 0 6-.487 3.534-.898 7.073-1.305 10.617-.685 3.337-1.423 4.912-3.695 7.383-.65-8.13 1.349-16.697 5-24"/><path fill="#f0cc53" d="M191 92h1c.348 4.877-.583 7.77-3 12h-2v2h-2v2h-2c1.31-4.234 2.944-8.074 5-12h2z"/><path fill="#f1c93a" d="M48 190h6v2l2.25.313c2.92.73 4.482 1.755 6.75 3.687h-8v-2h-7z"/><path fill="#ebc62d" d="m204 140 1 3-1.875 1.25c-2.193 1.806-3.053 3.16-4.125 5.75h-3v2c-1.875 2.125-1.875 2.125-4 4h-2c1.625-5.75 1.625-5.75 5-8h3l.188-1.75c1.132-3.137 3.154-4.342 5.812-6.25"/><path fill="#fcf0b7" d="M17 192c5.06.482 7.888 2.087 12 5a198 198 0 0 0 6 3v2h-4v-2h-3v-2h-3v-2h-6v-2h-2z"/><path fill="#ebc744" d="M58 108c2.154 2.622 3.4 4.644 4 8h2q1.256 2.434 2.5 4.875l1.406 2.742C69 126 69 126 69 128h-2l-1-4h-2l-1-6h-2v-2l-3-1z"/><path fill="#f1d96a" d="M64 56h4l2 18c-3.006-3.006-2.596-5.824-3-10h-2c-1.354-2.709-1.065-5.01-1-8"/><path fill="#eec320" d="M170 20h6v2l3 1v1h-9l-.375 2.875C169 30 169 30 167 32l1-10h2z"/><path fill="#edc535" d="M23 176c3.28.694 6.107 1.858 9.125 3.313l2.633 1.238c2.467 1.594 3.214 2.74 4.242 5.449h-2v-2c-2.982-.773-5.976-1.412-9-2v-2l-1.937-.312L24 179z"/><path fill="#f6dc6b" d="M166 166h2c-1.11 3.487-2.263 6.775-4 10l2 1a105 105 0 0 1-4 5h-2q.464-2.438.938-4.875l.527-2.742C162 172 162 172 163 170h2z"/><path fill="#f0c82a" d="M192 118h3c-1.31 4.234-2.944 8.074-5 12h-2l-1 2-1-4h2l1-6h2z"/><path fill="#f0c837" d="M78 104h3c1.793 3.12 2.343 5.677 2.625 9.25l.227 2.703L84 118h-3a2338 2338 0 0 1-1.5-5.875l-.844-3.305C78 106 78 106 78 104"/><path fill="#f6df7f" d="M164 32h1v8h-2l-.113 2.047-.2 2.703-.175 2.672c-.576 2.901-1.588 4.37-3.512 6.578q.212-3.438.438-6.875c.08-1.276.162-2.552.246-3.867C160 40 160 40 161 38h2z"/><path fill="#fbeeb7" d="M74 18c2.355 3.18 2.175 6.151 2 10-2.463-2.463-2.998-4.707-4-8l-2.125.438c-2.95.577-5.908 1.079-8.875 1.562v-2h3v-2c6.942-1.42 6.942-1.42 10 0"/><path fill="#fbf0ad" d="M48 126h2c3 5.75 3 5.75 3 8h2l1 4h2l1 6h-2l-1-4h-2a1505 1505 0 0 1-3-5.875l-1.687-3.305C48 128 48 128 48 126"/><path fill="#f0c52b" d="M86 130c2 1 2 1 2.852 3.504l.773 3.059c.26 1.011.52 2.023.79 3.066L91 142h3v2h-2v8c-2.819-2.819-3.226-6.11-4.125-9.875-.182-.72-.364-1.441-.55-2.184C86.48 136.501 86 133.563 86 130"/><path fill="#f0ce51" d="M179 212h5c-4.08 3.697-7.864 5.259-13 7v3h-3l1-6h4v-2h6z"/><path fill="#f7e899" d="M136 128h3v8h-2l-2 8h-1c-.207-5.789.408-10.43 2-16"/><path fill="#eec93a" d="M52 130h4v2h2c1.591 4.177 2.213 7.532 2 12l-2-2v-4h-2l-1-4h-2z"/><path fill="#ebce51" d="M42 112h2q1.007 1.935 2 3.875l1.125 2.18C48 120 48 120 48 122h3c1.354 2.709 1.065 5.01 1 8l-2-4h-2a1505 1505 0 0 1-3-5.875l-1.687-3.305C42 114 42 114 42 112"/><path fill="#f0d97a" d="M210 56h4v2h2l2 6h-2l-1-4c-1.985.267-1.985.267-4 1l-1 3h-2c-.125-2.875-.125-2.875 0-6z"/><path fill="#f4d96e" d="m174 192 1 2-1 2 2 1v3l-9 2c1-4 1-4 2-6h2v-2z"/><path fill="#faeea7" d="m236 132 1 2-1 2h-3l-.937 1.875L230 142h-2v2h-4c0-2 0-2 2.313-4.562C229 137 229 137 232 136v-2z"/><path fill="#eaca4c" d="M115 7h13v3h-14z"/><path fill="#ebc846" d="M23 222h2v6h3c1.591 4.177 2.213 7.532 2 12-2.624-3.061-3-3.732-3-8h-2c-1.316-3.62-2-6.096-2-10"/><path fill="#f7c51d" d="M155 176h4l-1 8 3 1-1 1h-5z"/><path fill="#eec934" d="M30 154h6l2 8h2l2 6c-3.135-1.081-3.987-1.978-5.75-4.875C35 160 35 160 35 156h-5z"/><path fill="#fefacc" d="M130 128h2l-1 16h3l-1 6h-3z"/><path fill="#fbec90" d="M129 138h1v12h3l-2 10h-2z"/><path fill="#f2c93b" d="M69 194h4v2h2v2h2v6h-6l1-2h3v-2l-3-1c-1.687-1.437-1.687-1.437-3-3z"/><path fill="#efc53b" d="M10 134h2v2h3l1 4h3l1 4h-4v-2h-2c-4-4.353-4-4.353-4-8"/><path fill="#eecd54" d="M99 120c4.164 4.542 5 10.022 5 16h-3v-8h-2z"/><path fill="#fbf2b4" d="m144 248-2 2h-4v2h-4v2h-6v-2c10.374-4.592 10.374-4.592 16-4"/><path fill="#f8eaab" d="m230 164 5 1v7h-1v-5l-2.187 1.5c-2.961 1.58-4.526 1.782-7.813 1.5v-2l6-2z"/><path fill="#e9cd4f" d="M137 136c1.586 4.02.376 7.102-.812 11.125l-1.083 3.758C134 154 134 154 132 156c.313-7.361 1.94-13.309 5-20"/><path fill="#edc845" d="M70 128c2.645 3.125 3.844 6.088 5 10h2l2 6h-2v-2h-2l-2-6h-2z"/><path fill="#f1c425" d="M163 90h1c.465 7.79-.843 14.527-3 22h-1c-.133-7.739 1.067-14.524 3-22"/><path fill="#fdf3bc" d="M43 80h2l1 4h2l1 4h2c1.43 2.354 2.087 3.48 1.625 6.25L52 96l-2-6h-2v-2h-2c-3-5.75-3-5.75-3-8"/><path fill="#f6c52d" d="M195 86h1l2 11-4-1v-2h-2l1-6h2z"/><path fill="#eec531" d="M176 186h3c-1.44 3.362-3.248 5.592-6 8h-2v-6h5z"/><path fill="#f2c420" d="M9 172h7v2l-6-1v5h2l1 8h-2c-1.97-4.927-2.18-8.78-2-14"/><path fill="#f0c625" d="M147 154c1.145 3.436.808 5.05.125 8.563l-.555 2.94C146 168 146 168 145 170l3 1-4 1c-.376-6.802.225-11.757 3-18"/><path fill="#fcf1bc" d="m59 144 2 4h2q1.256 2.434 2.5 4.875l1.406 2.742C68 158 68 158 68 160h-2c-3-5.75-3-5.75-3-8h-2c-1.765-3.088-2-4.233-2-8"/><path fill="#fceeaf" d="M196 80h2c-1.875 5.75-1.875 5.75-3 8h-2l-.875 2.875C191 94 191 94 189 96v-6h2l1-4h2z"/><path fill="#f5e6a7" d="M5 108c2.13 1.065 3.366 2.292 5 4H5v20H4q-.042-5.437-.062-10.875l-.026-3.129-.01-2.988-.016-2.761C4 110 4 110 5 108"/><path fill="#f3c52d" d="M203 92h3v4h2c-1.75 5.75-1.75 5.75-4 8-.125-5.75-.125-5.75 1-8h-3z"/><path fill="#ebc935" d="M64 214h5v2l4 1 1 5h-2l-1-3c-3.512-1.23-3.512-1.23-7-2z"/><path fill="#f1ca37" d="M167 196h2l-1 5 4-1v2h-2v2l-6-1-1-3h2v-2h2z"/><path fill="#fdf9c9" d="m180 188 1 2-1 2 2 1c-2.812 2.063-2.812 2.063-6 4l-3-1 2-4h3z"/><path fill="#fbedaa" d="M38 166c4.427 1.391 6.994 3.479 10 7v3h-2v-2l-4-2v-2h-2v-2h-2z"/><path fill="#fcf3b5" d="M184 154h3l-1 4h-2l-.687 1.875c-1.692 2.74-3.305 3.175-6.313 4.125v-2h2v-2h2l1-4h2z"/><path fill="#efc63c" d="M157 112h3c.407 5.42-.96 9.07-3 14h-1z"/><path fill="#ebc743" d="M220 144h2c-1.44 3.362-3.248 5.592-6 8h-2v2h-3v-2h2v-2h2v-2h2v-2h3z"/><path fill="#eecc46" d="m224 118 2 1-2 5h-2v2h-2v2l-4-1a418 418 0 0 1 2.875-3.5l1.617-1.969L222 120h2z"/><path fill="#fcf3ba" d="m63 112 2 4h2l.875 2.938c.767 3.169.767 3.169 3.125 4.062l-4 1a301 301 0 0 1-2-3.75l-1.125-2.11C63 116 63 116 63 112"/><path fill="#fcf7c2" d="M58 214c3.669.706 6.705 2.277 10 4v2h-8l1-4-3-1z"/><path fill="#eec846" d="M220 174c-.336 2.52-.574 3.672-2.625 5.25-3.176 1.003-6.067.877-9.375.75 1.976-1.976 3.523-2.896 6-4.125l2.125-1.07C218 174 218 174 220 174"/><path fill="#f8e793" d="M165 96h1c.125 7.75.125 7.75-1 10h-2l-1 6h-1c-.213-4.468.409-7.823 2-12h2z"/><path fill="#ecc738" d="M69 68h2c2.6 3.9 2.15 7.474 2 12h-2q-.503-2.437-1-4.875l-.562-2.742C69 70 69 70 69 68"/><path fill="#e8c63d" d="m126.066 249.902 2.496.036 2.504.027L133 250c-2.585 2.585-4.295 2.976-7.918 3.098l-3.27-.036-3.292-.027L116 253v-1l3.438-.437c3.02-.477 3.926-1.533 6.628-1.66"/><path fill="#fcedb1" d="M16 144h2v2l2.313.75c2.948 1.371 4.045 2.485 5.687 5.25v2h-2v-2h-2v-2h-3v-2h-2z"/><path fill="#fec304" d="M198 88h2l2 8h-4a177 177 0 0 1-1-7z"/><path fill="#f2c42e" d="m186 192 1 4h-3v2h-8v-2l3.313-.875c3.727-.944 3.727-.944 6.687-3.125"/><path fill="#fbf3b3" d="M47 186c3.716-.2 4.772-.152 8 2v2h3v2h-4v-2l-6-1z"/><path fill="#fbe989" d="M149 154h1v6l2 1c-1.375 2.5-1.375 2.5-3 5h-2c-.213-4.468.409-7.823 2-12"/><path fill="#f0ca49" d="M180 140h3l-.937 2.313A111 111 0 0 0 180 148h-2l-1 3c-1.044-3.133-.934-3.99 0-7h3z"/><path fill="#eec846" d="M213 84h2c-1.31 4.234-2.944 8.074-5 12h-2l1-6h2z"/><path fill="#fdeebb" d="M87 68c2.13 2.13 2.476 3.04 3.188 5.875l.542 2.055c.3 2.298-.036 3.876-.73 6.07v-2h-2c-1.327-3.981-1.07-7.85-1-12"/><path fill="#f0ce53" d="M203 70h2v6h-2v2h-2v2h-2c1.11-3.487 2.263-6.775 4-10"/><path fill="#e8c949" d="M215 222h3c-.632 5.053-2.135 9.296-4 14-1.137-3.404-.84-5.775-.062-9.25l.59-2.703z"/><path fill="#efc949" d="M64 168c2.38.176 3.702.697 5.379 2.402 1.242 1.504 2.435 3.05 3.621 4.598l-2 1v-2h-3v-2l-4-1z"/><path fill="#f3c42c" d="M208 154h3l-3 6h-4l-1 2v-4h2v-2h3z"/><path fill="#f2cc2b" d="M133 154c.688 1.625.688 1.625 1 4-1.437 3.25-1.437 3.25-3 6h-3v-4h3v-4h2z"/><path fill="#f4e68f" d="M205 134h3c-.953 4.192-1.633 5.72-5.125 8.375L200 144l.938-1.75c.988-2.093 1.579-3.995 2.062-6.25h2z"/><path fill="#e7c843" d="M235 112v4h-5v2l-4-1c5.625-5 5.625-5 9-5"/><path fill="#eec845" d="M61 186h4v2h2l2 6c-2.437-.812-2.437-.812-5-2l-1-3-2-1z"/><path fill="#f1c729" d="m73 176 3 1 1 5h3v2h-4v-2l-3-1z"/><path fill="#f5e192" d="m176 164 1 2a101 101 0 0 1-3 6h-3v2h-2l2-4 .938-2.125C173 166 173 166 176 164"/><path fill="#eec540" d="m50 96 2 4h3l2 8h-2v-4h-2v-2h-2z"/><path fill="#f3dd81" d="m37 72 1 2h4l1 6h-3l-1-4h-2z"/><path fill="#fdf2b3" d="M217 226h2c-.543 4.565-1.795 7.973-4 12-1.124-3.304-.896-5.05.438-8.25l.87-2.14z"/><path fill="#faefb4" d="m20 220 4 1v9h-2l-.937-2.875c-.937-2.986-.937-2.986-2.063-5.125z"/><path fill="#faeeac" d="M208 200v2h-3v2h-3v2l-4-1c5.5-5 5.5-5 10-5"/><path fill="#f5e495" d="M204 160h4v4h-3v2l-4-1c1.25-2.5 1.25-2.5 3-5"/><path fill="#fdefb2" d="M222 144h2v4h-2v2h-3v2h-2l-1 2c.507-4.398 3.083-6.87 6-10"/><path fill="#f0d158" d="M76 32c2.024 3.035 2.321 4.194 2.625 7.688l.227 2.449L79 44h-3z"/><path fill="#f9e578" d="M70 196a105 105 0 0 1 5 4v2c-4.128-.607-7.332-2.038-11-4 3.75-1.125 3.75-1.125 6 0z"/><path fill="#f6e480" d="M75 170h2l1 6h2v4c-3.875-1.75-3.875-1.75-5-4h2z"/><path fill="#edcd42" d="M182 108c.981 3.053.981 4.947 0 8h-3v2h-2l2-6h2z"/><path fill="#fbf1c2" d="M163 106c1.26 3.78.816 6.122 0 10-1.562 2.438-1.562 2.438-3 4v-8h2z"/><path fill="#f4c516" d="M156 72h1c.296 6.209-1.242 10.484-4 16l1-12h2z"/><path fill="#edcf57" d="M84 64c1.904 1.904 2.935 3.334 3.2 6.047-.011 1.985-.1 3.97-.2 5.953-1.904-1.904-2.935-3.334-3.2-6.047.011-1.985.1-3.97.2-5.953"/><path fill="#fbe9ad" d="M221 68h2c.921 3.6 1.286 5.386-.312 8.813C221 79 221 79 219 80l1-2.625c.987-3.332 1.164-5.927 1-9.375"/><path fill="#f4dc82" d="M54 212h9l1 4-10-2z"/><path fill="#edc947" d="M224 170h5v2h-2v2h-7l1-2h3z"/><path fill="#edc542" d="M7 114h5l2 4h2v2h-3v-2h-2v-2H7z"/><path fill="#fdf7c4" d="m58 22 3 1-1.437 1.125C57.478 26.626 57.353 28.815 57 32h-2c-.37-5.415-.37-5.415 1.5-8.375z"/><path fill="#e9cb57" d="M71.25 19.313 73 20l1 6-2-4h-7c3.446-3.077 3.446-3.077 6.25-2.687"/><path fill="#fcf4c2" d="M168 16h2v2h6v2l-3.875-.125c-2.144-.117-2.144-.117-4.125.125l-2 2c.875-4.875.875-4.875 2-6"/><path fill="#fbc41e" d="m163 201 1 2h2v3h-6v-4z"/><path fill="#eec62d" d="M64 198c3.688.498 5.605 1.1 8 4h-8z"/><path fill="#edc941" d="M185 178h2l-1 4h-2v2l-5 2v-2h2v-2h2v-2h2z"/><path fill="#fbefb2" d="M48 176c3.785.54 5.592 2.076 8 5v3h-2v-2h-2v-2h-2z"/><path fill="#fce9a4" d="M59 160h3v2h2c2 3 2 3 2 6h-2v-2h-2l-1-3-2-1z"/><path fill="#fdf7c2" d="M173 118h2c-1.11 3.487-2.263 6.775-4 10h-2v-4h2z"/><path fill="#f9e89c" d="M159 118h1l-1 10h-2l-1 2c.6-4.195 1.575-8.01 3-12"/><path fill="#efc635" d="M58 108c2.645 3.125 3.844 6.088 5 10h-2v-2l-3-1z"/><path fill="#eec73b" d="M188 100h2l-1 4h-2v2h-2v2h-2l2-6h3z"/><path fill="#faeead" d="M176 58h1v6h-2v4h-2l1-8h2z"/><path fill="#fdf6c1" d="M179 46h1c.402 8.036.402 8.036-3 12q.212-2.437.438-4.875c.08-.905.162-1.81.246-2.742C178 48 178 48 179 46"/><path fill="#fceea8" d="M218 194v2h-2v2h-3v2h-5c7.4-6 7.4-6 10-6"/><path fill="#ecc94d" d="m195 186 2 1-2 3h-3v2h-5c2.366-2.615 4.86-4.39 8-6"/><path fill="#f8d349" d="m76 178 4 2 1-2c2 3 2 3 2 6-2.937-.75-2.937-.75-6-2-.875-2.125-.875-2.125-1-4"/><path fill="#f1c73e" d="m58 160 1 2 3 1v3h2v2h-3v-2h-2z"/><path fill="#e9cb43" d="M88 160h2l3 8h-3v-2h-2z"/><path fill="#edce52" d="m41 144 1 2c1.946.59 1.946.59 4 1l2 1v2h-5v-2h-2z"/><path fill="#f4e4a0" d="M25 56h4v2h-3v2h-2l-2 4c.75-5.75.75-5.75 3-8"/><path fill="#f6c41b" d="M214 226c.93 2.606 1.15 3.642.063 6.25L213 234h-2c-.37-4.554-.37-4.554 1.5-6.812z"/><path fill="#fcf6c0" d="M179 216v4h-7c3.625-4 3.625-4 7-4"/><path fill="#ebcd57" d="m198 202 3 1c-1.974 2.523-2.967 2.993-6.187 3.688L192 207v-3h6z"/><path fill="#f4c414" d="m70 202 6 2-1 2h-4l-1 2h-2v-4h2z"/><path fill="#f9e998" d="m174 192 1 2-1 2 2 2-6 1c.313-2.375.313-2.375 1-5z"/><path fill="#f6e18b" d="M187 176h5v4h-5z"/><path fill="#fcf3a7" d="M74 170c3 3.75 3 3.75 3 6l-5-1-1-3h3z"/><path fill="#f9eaa7" d="M16 170h6l3 6c-3.436-1.527-6.12-3.6-9-6"/><path fill="#e5ca55" d="M7 167c2.438.375 2.438.375 5 1l1 2H8v6H7z"/><path fill="#faef9d" d="M91 156c2 2 2 2 2.125 5.125L93 164h-2l-1-4h-2l1-2 2 1z"/><path fill="#fbf2b5" d="M53 154h4v2h2v4h-3z"/><path fill="#f0c434" d="M172 152h3c-1.875 5.75-1.875 5.75-3 8h-2v-4h2z"/><path fill="#fdf5bd" d="M192 124h3l-2 6h-2l-1 2c.875-5.75.875-5.75 2-8"/><path fill="#fbeea7" d="M80 116c1.904 1.904 2.935 3.334 3.2 6.047-.011 1.985-.1 3.97-.2 5.953-2.203-4.406-3.11-6.975-3-12"/><path fill="#ebc73c" d="M96 110c3.006 3.006 2.596 5.824 3 10h-2c-1.607-3.215-1.057-6.436-1-10"/><path fill="#ebc736" d="M135 246h6c-2.395 2.9-4.312 3.502-8 4v-2h2z"/><path fill="#eccd4e" d="M208 196h5c-1.974 2.523-2.967 2.993-6.187 3.688L204 200v-2h4z"/><path fill="#f0cd49" d="M80 146c2.799 2.528 4.458 4.204 5 8h-2v-2h-2z"/><path fill="#edd166" d="M5 112h5l1 2H7l-1 6H5z"/><path fill="#efc734" d="M77 44h3v11h-1v-7h-2z"/><path fill="#efcd4c" d="M172 20h4v2l3 1v1h-6z"/><path fill="#f9eea5" d="m135 250-1 4h-6v-2c4.75-2 4.75-2 7-2"/><path fill="#ecc63f" d="M220 188h7c-2.052 2.248-3.007 3.002-6 4z"/><path fill="#f2e08d" d="m10 184 1 2h2a125 125 0 0 1 4 6h-4c-2.175-2.874-3-4.364-3-8"/><path fill="#fcf5b9" d="M39 182c3.344.557 6.033 1.352 9 3-2.25.75-2.25.75-5 1-2.312-1.937-2.312-1.937-4-4"/><path fill="#fdf8bd" d="M90 152h1v7l-3-1c-.687-2.062-.687-2.062-1-4h3z"/><path fill="#fdf4b9" d="M183 140h2l-2 8h-3c.628-2.929 1.586-5.361 3-8"/><path fill="#f5c31f" d="M226 118h3v2l-2 1-1.5 2.563L224 126h-2v-2l2-1a78 78 0 0 0 2-5"/><path fill="#efc638" d="M192 118h3c-1.75 5.75-1.75 5.75-4 8-.125-5.75-.125-5.75 1-8"/><path fill="#f0c743" d="m44 84 2 4h2v4h-3z"/><path fill="#eac63d" d="M26 58h4l2 6h-3v-4h-3z"/><path fill="#eecb3c" d="M169 216h5l-1.5 1.313c-1.832 1.684-1.832 1.684-1.5 4.687h-3z"/><path fill="#fbf2b5" d="M198 206v2c-2.647 1.46-3.894 2-7 2l1-3c2-1 2-1 6-1"/><path fill="#fcf5be" d="m26 154 4 2v2h2v2h-3v-2h-2z"/><path fill="#e9ce53" d="m215 128 1 2c-.937 2.125-.937 2.125-2 4l-4-1z"/><path fill="#efc836" d="m184 131 3 1c-1.75 5.75-1.75 5.75-4 8z"/><path fill="#fcf7c2" d="m64 18 4 1c-1.25 1.5-1.25 1.5-3 3h-4v-2h3z"/></svg>